<mxfile host="app.diagrams.net" modified="2023-10-14T11:55:04.804Z" agent="Mozilla/5.0 (iPad; CPU OS 16_5 like Mac OS X) AppleWebKit/605.1.15 (KHTML, like Gecko) CriOS/118.0.5993.69 Mobile/15E148 Safari/604.1" etag="BcLyssBy6fJYC8g_ausz" version="22.0.4" type="github">
  <diagram name="Page-1" id="zYtFi2cb0Fftw71drmIP">
    <mxGraphModel dx="644" dy="538" grid="1" gridSize="10" guides="1" tooltips="1" connect="1" arrows="1" fold="1" page="0" pageScale="1" pageWidth="827" pageHeight="1169" math="0" shadow="0">
      <root>
        <mxCell id="0" />
        <mxCell id="1" parent="0" />
      </root>
    </mxGraphModel>
  </diagram>
</mxfile>
